<?xml version="1.0" encoding="UTF-8"?>
<svg id="Layer_1" xmlns="http://www.w3.org/2000/svg" viewBox="0 0 474.76 486.2">
  <defs>
    <style>
      .cls-1 {
        fill: #fff;
      }
    </style>
  </defs>
  <path class="cls-1" d="M55.39,322.32c4.89-4.7,9.89-9.52,3.77-15.88-4.59-4.78-11.84-13.61-5.22-21.17,12.89-14.73,32.03,7.85,41.44,17.63,9.19,9.55,24.2,25.69,14.42,35.1-11.37,10.94-21.78-12.26-29.63-4.71-11.14,10.72-21.63,22.12-31.98,32.08-6.82,6.57-15.76,12.98-24.41,3.99-7.33-7.62,3.63-20.58,9.66-26.38,7.5-7.21,14.32-13.34,21.94-20.67"/>
  <path class="cls-1" d="M125.5,441.81c-8.58-4.7-5.72-16.81-.56-26.22,2.5-4.56,5.71-11.08,1.7-13.28-15.08-8.26-24.34,29.31-40.25,20.58-11.35-6.22-.55-26.57,7.11-40.54l10.7-19.51c6.75-12.31,17.63-29.2,25.79-24.73,16.19,8.88-10.41,34.42,2.04,41.25,11.21,6.14,21.24-31.54,37.71-22.51,10.79,5.92,6.03,16.26.49,26.36-.83,1.53-1.66,3.05-2.5,4.57-8.27,15.08-17.14,29.29-25.33,44.23-3.64,6.64-9.84,13.68-16.89,9.81"/>
  <path class="cls-1" d="M212.38,386.36c-3.12-.23-4.48.12-4.74,3.67-.16,2.23-.46,9.13-.38,11.15.11,1.57.29,2.03.96,2.08,4.22.32,12.72-5.76,13.1-10.87.31-4.23-5.83-5.8-8.94-6.03M242.4,394.43c-1.21,16.37-10.24,16.48-10.78,23.72-.74,9.91,10.27,25.76,9.02,42.6-.28,3.77-5.31,7.67-12.4,7.15-18.73-1.39-12.35-44.59-19.75-45.14-8.5-.63-1.01,43.44-17.85,42.19-12.43-.92-12.48-15.17-11.7-25.71.4-5.35.75-10.07,1.13-15.26.6-8.02,1.68-16.18,2.28-24.2,2.24-30.21,7.16-34.6,37.21-32.36,14.79,1.1,24.14,9.39,22.83,27.01"/>
  <path class="cls-1" d="M264.77,432.33c-1.05-4.45-2.48-9.79-3.82-15.47-4.97-21.03-9.8-47.62,3.4-50.74,13.05-3.08,19.01,15.93,24.2,37.89,2.14,9.06,4.07,17.2,6.17,26.1,3.08,13.06,5.64,28.66-5.72,31.35-14.59,3.45-20.5-13.31-24.24-29.13"/>
  <path class="cls-1" d="M297.4,380.2c-6.14-9.56-7.95-21.14.28-26.42,14.2-9.12,38.62,33.88,46.99,28.51,5.31-3.41-26.26-45-8.08-56.68,6.64-4.26,12.33.52,16.33,6.76,11.5,17.92,30.68,80.21,15.02,90.26-14.47,9.29-59.73-25.58-70.54-42.44"/>
  <path class="cls-1" d="M382.05,284.18c10.69,7.56-10.46,21.59-1.06,28.25,6.18,4.37,16.23-13.64,26.65-6.26,9.14,6.47-2.98,20.31.89,23.04,11.2,7.93,14.47-21.26,29.92-10.32,11.84,8.39,6.38,22.11-1.55,33.31-13.85,19.57-33.96,6.49-54.18-7.82-.64-.46-1.42-1-2.06-1.46-18.93-13.4-37.06-26.82-22.57-47.29,6.02-8.5,13.91-18.56,23.96-11.45"/>
  <path class="cls-1" d="M346.52,120.4c-9.2-2.77-20.24,1.08-23.38,11.74-8.58,29.15-1.27,69.91-42.87,71.62-17.09.24-33.24-6.42-50.38-6.83-20.87-1.35-40.82,5.51-61.14,8.83-6.8.76-13.62.42-19.45-2.52-10.85-7.15-16.09-27.7-22.36-36.46-12.46-17.69-36.33-34.23-58.67-25.96-8.41,3.18-9.03,12.71-5.43,19.9,27.3,54.66,46.29,120.74,97.65,158.64,52.95,39.07,119.12,19.35,164.46-24.52,21.34-20.65,30.64-51.75,34.97-80.31,2.86-18.89,3.77-38.2,2.74-57.27-.63-11.65.85-17.62-5.24-28.31-2.48-4.36-6.47-7.22-10.89-8.55"/>
  <path class="cls-1" d="M198.34,143.38c17.44.95,8.32,28.85,22.33,33.97,8.56,3.62,20.3.24,22.15-9.87,1.58-6.82.87-14.12,1.05-21.07-.37-34.92-.15-69.93-1.22-104.9.23-16.61-10.76-25.48-27.05-20.9-8.96,2.21-14.14,10.79-14.26,19.68-1.25,15.16.38,30.64,1.01,45.82.35,8.42-1.94,18.25-11.86,19.63-18.5,2.57-20.72-28.53-24.81-40.27-3.95-11.34-18.99-18.57-28.65-10.39-9.7,8.68-7.18,24.19-5.43,35.75,3.66,20.15,9.06,39.71,13.16,59.85,3.61,13.01,5.05,34.09,21.39,36.62,8.05.56,17.13-4.26,19.14-12.08,2.82-10.92-4.73-30.91,12.56-31.84h.49Z"/>
  <path class="cls-1" d="M282.37,180.9c12.52-1.46,14.54-14.77,16.42-24.93,4.39-23.89,7.53-48.22,7.58-72.66.36-12.84-8.78-23.28-22.1-21.82-9.03.33-13.55,8.44-14.56,16.49-5.33,27.93-9.48,56.07-9.06,85.01-.26,13.22,8.54,19.79,21.22,17.98l.5-.08Z"/>
</svg>